<?xml version="1.0" standalone="no"?>
<!DOCTYPE svg PUBLIC "-//W3C//DTD SVG 20010904//EN"
 "http://www.w3.org/TR/2001/REC-SVG-20010904/DTD/svg10.dtd">
<svg version="1.0" xmlns="http://www.w3.org/2000/svg"
 width="225.000000pt" height="225.000000pt" viewBox="0 0 225.000000 225.000000"
 preserveAspectRatio="xMidYMid meet">

<g transform="translate(0.000000,225.000000) scale(0.100000,-0.100000)"
fill="#000000" stroke="none">
<path d="M1135 2130 c-3 -6 1 -7 9 -4 18 7 21 14 7 14 -6 0 -13 -4 -16 -10z"/>
<path d="M949 2103 c-13 -16 -12 -17 4 -4 9 7 17 15 17 17 0 8 -8 3 -21 -13z"/>
<path d="M1119 2089 c16 -13 31 -17 45 -13 23 7 38 25 29 34 -3 3 -8 -1 -10
-7 -6 -15 -49 -17 -58 -3 -3 6 -12 10 -18 10 -7 -1 -1 -10 12 -21z"/>
<path d="M1070 2084 c0 -8 5 -12 10 -9 6 4 8 11 5 16 -9 14 -15 11 -15 -7z"/>
<path d="M1190 2064 c-17 -9 -20 -14 -9 -14 9 0 22 7 29 15 15 18 13 18 -20
-1z"/>
<path d="M1090 2066 c0 -2 7 -7 16 -10 8 -3 12 -2 9 4 -6 10 -25 14 -25 6z"/>
<path d="M1104 1998 l-19 -23 23 19 c21 18 27 26 19 26 -2 0 -12 -10 -23 -22z"/>
<path d="M1290 1992 c0 -12 19 -26 26 -19 2 2 -2 10 -11 17 -9 8 -15 8 -15 2z"/>
<path d="M1227 1979 c7 -7 15 -10 18 -7 3 3 -2 9 -12 12 -14 6 -15 5 -6 -5z"/>
<path d="M1276 1962 c-3 -6 1 -13 10 -16 8 -3 12 -11 8 -17 -4 -8 -3 -9 5 -5
9 6 9 12 -1 24 -7 10 -13 18 -14 20 -1 2 -5 -1 -8 -6z"/>
<path d="M1250 1946 c0 -2 8 -10 18 -17 15 -13 16 -12 3 4 -13 16 -21 21 -21
13z"/>
<path d="M1195 1929 c-5 -5 -21 -18 -34 -29 -13 -11 -19 -20 -13 -20 7 0 21 9
33 21 11 11 27 18 34 15 8 -3 17 0 21 7 4 7 4 9 -1 5 -4 -4 -13 -4 -19 1 -6 5
-15 5 -21 0z"/>
<path d="M1025 1919 c-4 -6 -5 -12 -2 -15 2 -3 7 2 10 11 7 17 1 20 -8 4z"/>
<path d="M1085 1920 c-16 -7 -17 -9 -3 -9 9 -1 20 4 23 9 7 11 7 11 -20 0z"/>
<path d="M1082 1850 c0 -14 2 -19 5 -12 2 6 2 18 0 25 -3 6 -5 1 -5 -13z"/>
<path d="M1217 1823 c-4 -3 -7 -11 -7 -17 0 -6 5 -5 12 2 6 6 9 14 7 17 -3 3
-9 2 -12 -2z"/>
<path d="M710 1774 c-61 -34 -86 -59 -128 -123 l-35 -54 -17 23 -18 24 -22
-43 c-30 -60 -58 -175 -66 -275 l-7 -85 -27 14 c-25 13 -29 13 -34 -1 -10 -27
-6 -87 9 -144 8 -30 15 -56 15 -57 0 -1 -12 -1 -27 0 -25 2 -28 -1 -25 -28 5
-44 35 -106 71 -147 17 -20 27 -38 21 -40 -18 -6 7 -58 46 -94 33 -32 34 -33
14 -44 -20 -11 -20 -12 -3 -41 32 -54 119 -112 211 -139 48 -15 51 -21 20 -35
-38 -17 -31 -33 27 -54 71 -27 138 -27 220 0 l65 22 23 -25 c13 -14 33 -29 45
-32 24 -8 68 12 95 42 18 20 19 20 63 1 66 -30 142 -39 220 -28 37 5 70 12 73
15 3 2 0 18 -6 35 -10 26 -9 31 5 35 56 18 162 78 191 108 37 38 37 66 -1 66
-21 0 -19 4 19 38 23 20 49 49 58 64 15 24 15 27 1 35 -13 7 -8 15 28 46 26
22 55 59 70 91 33 69 33 86 1 86 -22 0 -24 2 -15 26 6 14 10 37 10 52 -1 24
-2 22 -15 -12 -7 -21 -28 -54 -47 -74 -21 -22 -26 -31 -13 -25 29 15 85 24 85
15 0 -5 -7 -30 -16 -57 -26 -76 -116 -152 -138 -117 -3 5 8 22 24 37 17 16 30
35 30 44 0 10 -8 7 -28 -12 -31 -30 -62 -35 -62 -11 0 9 17 34 39 55 21 22 32
39 25 39 -8 0 -14 10 -14 22 l0 21 -22 -20 c-45 -40 -50 -35 -22 18 32 59 148
184 163 175 5 -4 13 -1 17 5 4 8 -2 9 -23 5 l-30 -7 -7 113 c-4 63 -10 127
-15 143 -6 20 -7 4 -4 -50 5 -99 -15 -198 -39 -203 -16 -3 -18 6 -19 80 -1 89
-16 69 -18 -25 -1 -59 -21 -60 -35 -1 -19 81 32 329 64 309 6 -4 17 -21 25
-38 12 -25 14 -26 9 -7 -3 14 -10 38 -16 53 -10 25 -12 26 -28 12 -24 -22 -27
-20 -51 27 -21 42 -139 168 -156 168 -11 0 3 -152 17 -194 5 -16 10 -30 10
-32 0 -2 -21 6 -46 17 -25 12 -48 18 -51 15 -3 -3 1 -36 11 -72 9 -37 15 -69
13 -71 -2 -1 -77 -7 -166 -13 -152 -9 -463 0 -563 16 l-37 6 29 59 c26 50 39
99 26 99 -2 0 -23 -7 -46 -15 -39 -14 -42 -14 -35 3 38 87 58 183 40 189 -5 1
-30 -9 -55 -23z m26 -59 c-4 -25 -24 -79 -45 -120 -36 -73 -37 -74 -12 -58 14
9 46 28 70 41 l43 25 -7 -24 c-18 -58 -64 -137 -109 -186 -63 -69 -90 -70 -36
-2 52 66 44 77 -11 16 -22 -26 -45 -47 -50 -47 -19 0 -8 55 18 92 14 22 28 49
29 62 1 13 12 42 23 65 32 61 6 50 -30 -14 -17 -30 -35 -55 -40 -55 -5 0 -9
17 -9 38 0 50 63 149 121 192 23 16 44 28 47 26 2 -3 1 -26 -2 -51z m900 -7
c49 -51 86 -130 82 -174 -3 -34 -28 -63 -28 -32 -1 20 -40 102 -46 95 -3 -3 1
-28 10 -56 21 -72 1 -65 -34 12 -28 62 -37 96 -44 169 -3 32 -1 36 13 28 9 -4
30 -23 47 -42z m-1093 -154 c15 -51 11 -246 -7 -287 -23 -56 -34 -44 -28 33 6
93 -12 91 -24 -2 -7 -54 -13 -73 -24 -73 -22 0 -26 157 -5 238 16 64 53 129
69 124 6 -2 14 -17 19 -33z m1059 -33 c60 -51 98 -108 98 -147 0 -43 -14 -37
-59 22 -46 61 -53 47 -7 -16 45 -63 23 -69 -29 -7 -37 43 -87 139 -99 190 l-7
29 32 -19 c17 -10 49 -33 71 -52z m-785 -226 c7 -44 -9 -69 -62 -101 -64 -37
-124 -40 -80 -4 21 17 48 116 41 146 -4 13 -13 24 -21 24 -10 0 -5 13 17 45
l32 45 34 -62 c18 -34 36 -76 39 -93z m83 94 c0 -17 -18 -9 -33 15 -9 13 -13
27 -9 31 7 7 42 -31 42 -46z m40 0 c0 -16 -19 -9 -30 10 -17 33 -11 48 10 22
11 -13 20 -27 20 -32z m-93 19 c28 -26 30 -43 3 -28 -20 11 -46 50 -33 50 3 0
17 -10 30 -22z m116 -8 c3 -11 2 -20 -3 -20 -8 0 -20 24 -20 41 0 17 17 1 23
-21z m27 -8 c0 -21 -2 -24 -10 -12 -13 20 -13 53 0 45 6 -3 10 -18 10 -33z
m37 -24 c-3 -22 -4 -21 -11 4 -5 16 -5 36 0 45 7 16 8 15 11 -4 3 -13 3 -33 0
-45z m249 4 c-12 -11 -17 7 -9 34 l8 29 3 -28 c2 -16 1 -31 -2 -35z m30 21
c-8 -15 -15 -22 -16 -15 0 17 20 55 27 49 2 -3 -2 -18 -11 -34z m54 30 c-1
-15 -39 -58 -46 -51 -8 9 22 58 36 58 6 0 10 -3 10 -7z m40 -2 c0 -6 -4 -13
-10 -16 -5 -3 -10 -11 -10 -17 0 -7 14 1 30 17 21 20 30 24 30 13 0 -23 -32
-47 -62 -45 -32 2 -33 5 -12 35 16 23 34 29 34 13z m-330 -37 c0 -21 -4 -33
-10 -29 -5 3 -10 19 -10 36 0 16 5 29 10 29 6 0 10 -16 10 -36z m40 17 c0 -11
-4 -23 -10 -26 -6 -4 -10 5 -10 19 0 14 5 26 10 26 6 0 10 -9 10 -19z m30 -11
c0 -10 -4 -22 -10 -25 -6 -4 -10 7 -10 25 0 18 4 29 10 25 6 -3 10 -15 10 -25z
m30 11 c0 -11 -4 -23 -10 -26 -6 -4 -10 5 -10 19 0 14 5 26 10 26 6 0 10 -9
10 -19z m34 -25 c-3 -14 -10 -26 -15 -26 -10 0 -12 31 -3 55 10 26 26 1 18
-29z m36 9 c0 -19 -4 -35 -10 -35 -11 0 -14 53 -3 63 11 12 13 8 13 -28z m333
-17 c20 -27 24 -39 13 -35 -13 5 -16 -2 -16 -48 0 -29 5 -66 10 -81 18 -45 7
-56 -37 -38 -96 40 -117 99 -60 174 17 24 36 49 42 56 14 20 17 18 48 -28z
m-713 -26 c49 -47 54 -71 9 -45 -32 18 -69 59 -69 74 0 18 20 8 60 -29z m581
2 c-29 -37 -69 -66 -84 -61 -7 3 7 23 36 51 49 48 83 55 48 10z m-751 -39 c0
-55 -72 -185 -102 -185 -5 0 -7 8 -4 18 2 9 8 28 12 42 6 22 5 23 -10 11 -9
-8 -21 -33 -27 -57 -12 -46 -23 -55 -33 -28 -22 56 5 124 74 188 61 57 90 61
90 11z m502 1 c158 -56 190 -259 57 -355 -108 -79 -272 -48 -337 64 -31 55
-28 156 7 207 58 84 173 120 273 84z m484 -39 c44 -38 64 -81 64 -135 0 -28
-4 -53 -8 -56 -5 -3 -16 19 -26 49 -9 30 -22 55 -28 55 -5 0 -7 -7 -4 -16 28
-73 12 -84 -33 -22 -35 48 -67 138 -58 162 6 15 9 15 37 1 17 -9 42 -26 56
-38z m-1247 -57 c43 -42 127 -177 117 -188 -4 -3 -20 7 -36 23 -29 28 -30 28
-30 7 0 -12 -6 -22 -13 -22 -14 0 -65 52 -84 86 -26 47 -28 134 -3 134 5 0 27
-18 49 -40z m409 -9 c3 -8 -1 -12 -9 -9 -7 2 -15 10 -17 17 -3 8 1 12 9 9 7
-2 15 -10 17 -17z m580 7 c-3 -7 -13 -15 -24 -17 -16 -3 -17 -1 -5 13 16 19
34 21 29 4z m-598 -28 c8 -5 12 -12 8 -15 -9 -9 -48 4 -48 16 0 12 21 11 40
-1z m630 1 c0 -12 -39 -25 -48 -16 -7 7 17 25 36 25 6 0 12 -4 12 -9z m-766
-62 c11 -55 7 -154 -7 -173 -12 -16 -11 -24 5 -54 10 -20 18 -42 18 -49 0 -15
-16 -17 -25 -3 -12 20 -26 10 -15 -11 15 -26 9 -32 -21 -20 -46 18 -81 66 -87
119 -2 27 0 52 6 56 5 3 30 -5 56 -19 25 -13 46 -23 46 -20 0 20 -22 54 -32
50 -8 -3 -22 1 -32 8 -17 12 -17 18 -6 53 13 41 56 94 76 94 6 0 14 -14 18
-31z m141 21 c4 -6 -13 -10 -45 -10 -32 0 -49 4 -45 10 3 6 24 10 45 10 21 0
42 -4 45 -10z m670 0 c4 -6 -13 -10 -45 -10 -32 0 -49 4 -45 10 3 6 24 10 45
10 21 0 42 -4 45 -10z m141 -17 c37 -37 59 -131 32 -135 -7 0 -17 -2 -23 -3
-5 -2 -16 -3 -22 -4 -7 0 -13 -10 -13 -20 0 -26 -20 -37 -32 -20 -9 14 -4 152
8 182 8 22 28 22 50 0z m-881 -40 c68 -46 74 -61 55 -150 -17 -77 -22 -80 -69
-43 l-41 33 0 94 c0 51 3 93 8 93 4 0 25 -12 47 -27z m79 18 c7 -10 -33 -23
-46 -15 -5 3 -6 10 -3 15 8 12 42 12 49 0z m611 0 c3 -5 2 -12 -3 -15 -13 -8
-53 5 -46 15 7 12 41 12 49 0z m110 -98 c-4 -54 -8 -98 -9 -98 0 0 -20 -15
-44 -33 -29 -23 -44 -29 -46 -20 -11 33 -27 160 -22 173 5 14 102 75 120 75 5
0 5 -43 1 -97z m-712 56 c-6 -6 -17 -8 -24 -3 -9 5 -8 9 7 14 23 9 31 3 17
-11z m567 1 c0 -5 -4 -10 -9 -10 -6 0 -13 5 -16 10 -3 6 1 10 9 10 9 0 16 -4
16 -10z m-955 -50 c39 -24 71 -59 80 -87 9 -33 -21 -30 -57 4 -41 39 -48 19
-8 -22 27 -28 31 -38 21 -48 -23 -23 -82 23 -118 94 -45 89 -44 99 9 87 23 -5
56 -18 73 -28z m405 -5 c-7 -8 -17 -15 -22 -15 -6 0 -5 7 2 15 7 8 17 15 22
15 6 0 5 -7 -2 -15z m540 -11 c0 -17 -22 -14 -28 4 -2 7 3 12 12 12 9 0 16 -7
16 -16z m-536 -39 c-11 -8 -22 -15 -26 -15 -16 0 -7 19 14 35 28 19 39 0 12
-20z m531 5 c28 -31 8 -37 -23 -7 -19 20 -22 27 -11 27 9 0 24 -9 34 -20z
m-505 -30 c-23 -32 -78 -75 -86 -67 -9 8 77 97 93 97 11 0 9 -7 -7 -30z m814
5 c12 -48 -41 -133 -94 -150 -26 -8 -38 1 -22 17 7 7 12 16 12 22 0 6 -5 5
-12 -2 -7 -7 -18 -12 -25 -12 -9 0 -9 9 3 42 17 50 29 65 69 90 41 25 62 23
69 -7z m-310 -26 c45 -40 57 -59 36 -59 -13 0 -100 79 -100 91 0 17 18 8 64
-32z m-484 -8 c-20 -30 -40 -40 -40 -22 0 12 50 64 57 58 3 -3 -5 -20 -17 -36z
m31 -14 c-16 -16 -26 0 -10 19 9 11 15 12 17 4 2 -6 -1 -17 -7 -23z m397 17
c29 -20 31 -49 2 -34 -21 11 -46 50 -33 50 5 0 19 -7 31 -16z m-34 -20 c4 -10
1 -14 -6 -12 -15 5 -23 28 -10 28 5 0 13 -7 16 -16z m-524 -46 c29 -29 47 -42
41 -30 -7 13 -11 25 -9 26 2 2 43 12 91 23 l88 20 26 -34 c29 -38 76 -160 68
-174 -4 -5 -17 -9 -31 -9 -17 0 -24 -5 -24 -20 0 -25 -2 -25 -48 -1 -47 24
-77 56 -97 104 l-16 39 23 -7 c13 -4 38 -16 56 -26 18 -10 30 -14 27 -9 -8 14
-80 50 -99 50 -17 0 -28 -24 -20 -45 7 -18 -7 -20 -24 -3 -17 17 -25 3 -12
-22 14 -27 9 -33 -23 -25 -19 5 -32 22 -52 66 -30 67 -43 129 -27 129 5 0 33
-24 62 -52z m270 28 c0 -17 -14 -29 -23 -20 -8 8 3 34 14 34 5 0 9 -6 9 -14z
m167 -1 c8 -22 -6 -33 -17 -15 -13 20 -12 30 0 30 6 0 13 -7 17 -15z m328 -7
c-4 -13 -9 -32 -12 -43 -15 -54 -56 -123 -79 -134 -32 -14 -37 -14 -31 2 2 6
8 23 12 35 7 23 7 23 -19 7 -40 -26 -31 -3 24 63 69 83 118 116 105 70z m-464
-25 c-9 -35 -31 -42 -31 -11 0 25 18 50 31 43 4 -3 4 -17 0 -32z m54 -53 c0
-79 -17 -112 -35 -66 -22 58 -4 174 23 147 7 -7 12 -40 12 -81z m45 60 c0 -28
-11 -51 -21 -44 -10 6 -12 57 -3 67 11 10 24 -3 24 -23z m167 9 c48 -11 90
-23 92 -25 2 -2 -8 -19 -22 -37 -21 -28 -31 -33 -59 -31 -26 3 -28 2 -9 -4
l23 -7 -34 -45 c-32 -42 -98 -89 -125 -90 -7 0 -13 9 -13 20 0 11 -6 20 -14
20 -28 0 -39 27 -26 62 18 46 83 158 91 158 4 0 47 -9 96 -21z m-730 -50 c59
-19 113 -57 113 -79 0 -13 -4 -13 -45 4 l-35 15 16 -25 c16 -23 16 -24 -10
-24 -66 0 -216 88 -216 127 0 13 9 14 58 9 31 -4 85 -16 119 -27z m1177 -7 c6
-10 -42 -57 -90 -90 -34 -23 -130 -50 -140 -39 -4 4 -1 13 6 22 15 18 3 19
-36 5 -15 -6 -29 -8 -32 -5 -9 8 31 46 71 66 68 35 209 61 221 41z m-1190
-117 c57 -9 128 -48 164 -90 36 -40 39 -53 16 -62 -18 -7 -110 20 -167 49 -48
24 -129 97 -121 109 3 5 20 7 37 5 18 -3 50 -8 71 -11z m221 -5 c58 -13 155
-48 182 -65 27 -18 31 -41 6 -30 -46 19 -54 14 -15 -10 46 -29 55 -46 20 -38
-109 24 -318 125 -318 154 0 10 47 6 125 -11z m703 -12 c-11 -31 -265 -138
-328 -138 -22 0 -20 4 20 31 40 28 35 34 -12 14 -11 -4 -18 -3 -18 4 0 20 61
49 149 70 140 33 195 39 189 19z m-392 -24 c35 -53 12 -214 -31 -214 -24 0
-35 35 -35 110 0 69 19 130 40 130 5 0 17 -12 26 -26z m594 7 c0 -14 -66 -69
-109 -91 -58 -29 -176 -60 -192 -49 -39 24 62 112 153 134 62 16 148 19 148 6z
m-785 -125 c40 -17 45 -40 13 -58 -32 -18 -196 -17 -228 1 -23 14 -22 15 60
42 99 33 109 34 155 15z m487 -39 l73 -35 -30 -12 c-35 -14 -117 -7 -187 16
-60 19 -68 32 -37 57 33 26 89 19 181 -26z"/>
<path d="M1075 1280 c-4 -6 -2 -17 5 -25 13 -16 10 -279 -4 -307 -7 -15 -3
-18 28 -18 39 0 45 12 21 44 -20 26 -21 126 -2 126 8 0 19 -10 25 -22 9 -19
11 -14 11 37 1 57 0 58 -15 37 -22 -32 -34 -19 -34 37 0 72 35 90 59 31 9 -22
10 -19 10 23 l1 47 -49 0 c-28 0 -53 -5 -56 -10z"/>
<path d="M960 1120 l0 -90 39 0 c50 0 71 27 71 90 0 63 -21 90 -71 90 l-39 0
0 -90z m83 25 c12 -44 -6 -85 -38 -85 -24 0 -25 2 -25 61 0 60 0 60 27 57 21
-2 29 -10 36 -33z"/>
<path d="M1202 1188 c-22 -22 -14 -58 18 -76 16 -9 30 -25 30 -36 0 -15 -5
-17 -30 -12 -22 4 -30 2 -30 -9 0 -10 10 -15 33 -15 43 0 60 12 60 45 0 15 -7
31 -14 36 -8 4 -23 14 -33 22 -26 19 -12 41 21 32 18 -4 24 -2 21 7 -6 17 -60
22 -76 6z"/>
<path d="M1232 711 c-22 -16 -43 -36 -48 -43 -4 -7 4 -3 17 8 13 12 40 31 59
43 19 11 30 21 24 21 -6 0 -29 -13 -52 -29z"/>
<path d="M1056 1775 c-3 -8 -1 -15 4 -15 6 0 10 7 10 15 0 8 -2 15 -4 15 -2 0
-6 -7 -10 -15z"/>
<path d="M1036 1735 c-3 -8 0 -17 6 -21 6 -4 8 -3 4 4 -3 6 2 12 11 14 16 3
17 4 1 10 -10 4 -18 1 -22 -7z"/>
<path d="M965 1700 c4 -6 11 -8 16 -5 14 9 11 15 -7 15 -8 0 -12 -5 -9 -10z"/>
<path d="M1292 1704 c10 -9 58 -12 52 -3 -3 5 -17 9 -31 9 -15 0 -24 -3 -21
-6z"/>
<path d="M950 1675 c0 -8 4 -15 10 -15 5 0 7 7 4 15 -4 8 -8 15 -10 15 -2 0
-4 -7 -4 -15z"/>
<path d="M961 1617 c0 -10 7 -20 17 -24 9 -3 24 -12 33 -19 11 -10 27 -11 60
-5 l44 9 -39 1 c-52 1 -104 21 -109 40 -4 13 -5 12 -6 -2z"/>
<path d="M1018 1623 c7 -3 16 -2 19 1 4 3 -2 6 -13 5 -11 0 -14 -3 -6 -6z"/>
<path d="M1331 1607 c-13 -21 -12 -21 5 -5 10 10 16 20 13 22 -3 3 -11 -5 -18
-17z"/>
<path d="M1235 1580 c-50 -5 -53 -7 -20 -8 22 -1 50 -5 61 -8 14 -4 23 0 27
10 4 9 3 15 -1 14 -4 -1 -34 -4 -67 -8z"/>
<path d="M1128 1573 c6 -2 18 -2 25 0 6 3 1 5 -13 5 -14 0 -19 -2 -12 -5z"/>
<path d="M1007 1504 c4 -11 8 -12 13 -4 6 9 9 9 13 -1 4 -10 6 -9 6 4 1 11 -6
17 -19 17 -14 0 -18 -5 -13 -16z"/>
<path d="M1070 1511 c0 -6 5 -13 12 -17 6 -4 8 -3 4 4 -4 7 6 12 26 15 33 4
33 4 -4 5 -21 1 -38 -2 -38 -7z"/>
<path d="M1226 1505 c-3 -8 -1 -15 3 -15 5 0 11 7 15 15 3 8 1 15 -3 15 -5 0
-11 -7 -15 -15z"/>
<path d="M1268 1513 c7 -3 16 -2 19 1 4 3 -2 6 -13 5 -11 0 -14 -3 -6 -6z"/>
<path d="M1307 1500 c3 -11 7 -20 9 -20 2 0 4 9 4 20 0 11 -4 20 -9 20 -5 0
-7 -9 -4 -20z"/>
<path d="M1902 1160 c0 -14 2 -19 5 -12 2 6 2 18 0 25 -3 6 -5 1 -5 -13z"/>
<path d="M113 983 c-10 -32 -18 -89 -18 -126 0 -75 4 -73 -72 -51 -22 6 -23 4
-23 -68 l0 -74 46 -44 46 -45 -5 -142 c-6 -141 -5 -143 16 -147 209 -44 291
-70 442 -138 409 -186 745 -194 1120 -26 175 78 294 115 436 133 l47 6 7 140
7 140 44 35 44 36 0 100 c0 91 -2 100 -17 93 -10 -3 -30 -9 -44 -12 -24 -4
-25 -2 -28 42 -1 25 -11 76 -22 112 l-20 65 -20 -38 c-10 -22 -79 -118 -154
-214 -126 -164 -135 -178 -135 -220 0 -75 -7 -86 -68 -113 -98 -44 -268 -96
-369 -113 -130 -22 -349 -22 -473 0 -112 20 -306 84 -402 132 l-68 34 0 66 c0
65 -1 66 -51 122 -63 71 -160 214 -205 304 -19 37 -36 68 -39 68 -2 0 -12 -26
-22 -57z"/>
</g>
</svg>
